<svg width="13" height="16" viewBox="0 0 13 16" fill="none" xmlns="http://www.w3.org/2000/svg">
<path d="M6.07301 9.56553L6.32885 9.56663C10.0445 9.59897 12.1468 10.3494 12.1468 12.3992C12.1468 14.4056 10.132 15.1796 6.57874 15.2444L6.07301 15.2489C2.19741 15.2489 0 14.5122 0 12.4152C0 10.3155 2.20615 9.56553 6.07301 9.56553ZM6.07301 10.7656C2.85902 10.7656 1.20004 11.3295 1.20004 12.4152C1.20004 13.494 2.85504 14.0489 6.07301 14.0489C9.28723 14.0489 10.9468 13.4848 10.9468 12.3992C10.9468 11.321 9.29027 10.7656 6.07301 10.7656ZM6.07301 0C8.35152 0 10.1812 1.82935 10.1812 4.10734C10.1812 6.38599 8.35166 8.21549 6.07301 8.21549C3.79447 8.21549 1.96567 6.3861 1.96567 4.10734C1.96567 1.82924 3.79462 0 6.07301 0ZM6.07301 1.20004C4.45742 1.20004 3.16571 2.49196 3.16571 4.10734C3.16571 5.72342 4.45732 7.01544 6.07301 7.01544C7.6889 7.01544 8.98111 5.72323 8.98111 4.10734C8.98111 2.49216 7.68879 1.20004 6.07301 1.20004Z" fill="#520404"/>
</svg>
