<svg width="12" height="11" viewBox="0 0 12 11" fill="none" xmlns="http://www.w3.org/2000/svg">
<path d="M1.54301 4.73231L1.72485 4.71886L4.51884 4.68595L4.47958 2.32194C4.4701 1.74627 5.0139 1.2731 5.69421 1.26508C6.31267 1.25778 6.83103 1.63741 6.92729 2.139L6.94318 2.29287L6.98091 4.6569L9.77535 4.62387C10.4557 4.61585 11.0148 5.07601 11.0243 5.65167C11.033 6.17499 10.5843 6.61362 9.99154 6.69508L9.8097 6.70853L7.01641 6.74123L7.05544 9.10505C7.06492 9.68071 6.52111 10.1539 5.84081 10.1619C5.22235 10.1692 4.70399 9.78957 4.60773 9.28799L4.59183 9.13412L4.55202 6.7703L1.75921 6.80351C1.0789 6.81154 0.519715 6.35138 0.510229 5.77572C0.501606 5.25239 0.950248 4.81376 1.54301 4.73231Z" fill="#520404"/>
</svg>
