<svg width="29" height="24" viewBox="0 0 29 24" fill="none" xmlns="http://www.w3.org/2000/svg">
<path d="M28.7998 12.0002C28.7998 12.6728 28.3073 13.2286 27.6683 13.3166L27.4907 13.3287L4.47821 13.328L12.7922 21.7301C13.3046 22.2478 13.3063 23.0889 12.7962 23.6089C12.3325 24.0815 11.6053 24.126 11.092 23.7412L10.9449 23.6129L0.384876 12.9423L0.358995 12.9143C0.33218 12.8856 0.306614 12.8557 0.282383 12.8247L0.384876 12.9423C0.334 12.8909 0.288158 12.8363 0.247356 12.7791C0.222689 12.7432 0.198751 12.706 0.176668 12.6675C0.126781 12.5818 0.0881233 12.4921 0.0596046 12.3999C0.0499973 12.3674 0.0410671 12.3342 0.0333977 12.3005C0.0271587 12.2748 0.0220299 12.2487 0.0176811 12.2224C0.0133324 12.194 0.00953674 12.1655 0.0066452 12.1368C0.00336838 12.108 0.00135803 12.0785 0.00030899 12.049C9.34601e-05 12.0327 -0.00019455 12.0165 -0.00019455 12.0002L0.000196457 11.9561C0.00127792 11.9233 0.00354576 11.8907 0.00699615 11.8581L-0.00019455 12.0002C-0.00019455 11.9243 0.006073 11.8499 0.0181084 11.7775C0.0234852 11.7446 0.0302963 11.7114 0.0383625 11.6786C0.0448303 11.6524 0.0519409 11.6268 0.0597801 11.6015C0.0690308 11.5714 0.0796051 11.5411 0.0912952 11.5111C0.103434 11.4802 0.116562 11.45 0.130741 11.4203C0.141487 11.3977 0.153513 11.3743 0.166271 11.3512C0.190334 11.3079 0.215807 11.2673 0.243313 11.2283C0.247639 11.2222 0.252489 11.2154 0.257408 11.2087C0.301069 11.1494 0.346321 11.0971 0.395302 11.0487L10.9448 0.387169C11.4571 -0.130572 12.286 -0.12883 12.7961 0.391059C13.2599 0.863685 13.3007 1.60183 12.9194 2.12112L12.7923 2.26985L4.47981 10.6704L27.4907 10.6717C28.2137 10.6717 28.7998 11.2665 28.7998 12.0002Z" fill="black" fill-opacity="0.5"/>
</svg>