<svg width="22.2" height="20" viewBox="0 0 16 19" fill="none" xmlns="http://www.w3.org/2000/svg">
<path d="M10.4545 16.65C10.7337 16.8773 10.7779 17.2906 10.5534 17.5732C10.3873 17.7821 10.1955 17.9691 9.99221 18.1224C9.30739 18.6597 8.43672 18.9034 7.57205 18.8004C6.70661 18.6973 5.91718 18.2553 5.37844 17.5708C5.1552 17.2871 5.20138 16.874 5.48158 16.648C5.76178 16.4221 6.1699 16.4688 6.39313 16.7524C6.71804 17.1653 7.19689 17.4334 7.72367 17.4961C8.25121 17.559 8.78188 17.4105 9.20712 17.0769C9.3325 16.9823 9.44518 16.8725 9.54251 16.75C9.76708 16.4674 10.1754 16.4227 10.4545 16.65ZM1.55494 6.58799L1.56653 6.02721C1.57481 5.78735 1.58763 5.56469 1.60645 5.34678C1.88851 2.30077 4.7959 0 7.96686 0H8.03399C11.2032 0 14.1115 2.29916 14.4032 5.35093C14.4199 5.54493 14.4271 5.71725 14.4293 5.95959L14.4301 6.70101C14.4308 6.76854 14.432 6.82794 14.4337 6.88332L14.4424 7.06802L14.4843 7.24412C14.6167 7.73461 14.8495 8.19317 15.1682 8.59126L15.3101 8.75808L15.3681 8.83263C15.7504 9.40394 15.9688 10.0687 16 10.7847L15.9991 11.1643C15.9724 12.0122 15.6611 12.8312 15.0907 13.5136C14.3352 14.3154 13.3114 14.8135 12.2234 14.9136C9.41364 15.2187 6.57882 15.2187 3.77691 14.9144C2.68138 14.809 1.66065 14.3124 0.872122 13.4798C0.290653 12.7709 -0.0184331 11.8784 0.000850768 10.9764L0.00164676 10.7522C0.0352402 10.0664 0.25227 9.40221 0.629989 8.82842L0.693209 8.74709C1.13435 8.26346 1.43595 7.67158 1.56681 7.03346L1.55265 7.09078L1.55494 6.58799ZM8.03399 1.31327H7.96686C5.42731 1.31327 3.11344 3.14434 2.89852 5.4652C2.88751 5.59273 2.87874 5.72431 2.87188 5.86277L2.85677 6.30173L2.85063 7.16693L2.83709 7.3004C2.65829 8.17224 2.24686 8.9797 1.64639 9.63799L1.69276 9.58424L1.60983 9.72149C1.45448 10.0014 1.35426 10.3054 1.31465 10.6054L1.29821 10.7847L1.29806 10.9905C1.28535 11.5899 1.48787 12.1747 1.83877 12.6052C2.38006 13.175 3.1123 13.5313 3.90746 13.6078C6.62521 13.903 9.36725 13.903 12.0954 13.6068C12.882 13.5343 13.6137 13.1783 14.1255 12.6369C14.5129 12.1723 14.7176 11.5856 14.7026 10.9681L14.7034 10.8143C14.6835 10.3704 14.5421 9.94001 14.294 9.56912L14.3083 9.593L14.1786 9.4408C13.7311 8.88856 13.4061 8.24801 13.2251 7.56138L13.1641 7.30182L13.1519 7.2146C13.1428 7.08718 13.1374 6.97395 13.1346 6.83778L13.1321 5.98635C13.1303 5.76983 13.1244 5.62408 13.1113 5.47131C12.8888 3.14424 10.5728 1.31327 8.03399 1.31327Z" fill="#200E32"/>
</svg>
