<svg width="12" height="14" viewBox="0 0 12 14" fill="none" xmlns="http://www.w3.org/2000/svg">
<path fill-rule="evenodd" clip-rule="evenodd" d="M10.652 4.36864C10.9205 4.39075 11.1208 4.62544 11.0993 4.89394C11.0954 4.93815 10.743 9.30114 10.5402 11.1312C10.4141 12.267 9.66384 12.9581 8.53133 12.9789C7.66471 12.9938 6.82865 13.0023 6.01144 13.0023C5.13052 13.0023 4.27171 12.9925 3.422 12.975C2.33499 12.9535 1.58279 12.2488 1.45992 11.1358C1.25513 9.28944 0.904713 4.9375 0.901463 4.89394C0.879359 4.62544 1.0796 4.3901 1.3481 4.36864C1.6127 4.36149 1.85194 4.54743 1.8734 4.81528C1.87547 4.8435 2.01873 6.62069 2.17484 8.37907L2.20619 8.72997C2.28482 9.60398 2.36452 10.4438 2.42926 11.0285C2.49882 11.6611 2.84013 11.9875 3.44215 11.9998C5.06746 12.0343 6.72593 12.0362 8.51377 12.0037C9.15349 11.9914 9.49936 11.6715 9.57087 11.024C9.77241 9.20752 10.1235 4.85949 10.1274 4.81528C10.1488 4.54743 10.3861 4.36019 10.652 4.36864ZM7.37592 0C7.97274 0 8.49739 0.402427 8.65147 0.979088L8.8166 1.79889C8.86996 2.06764 9.10581 2.2639 9.37888 2.26821L11.5124 2.26828C11.7816 2.26828 12 2.48673 12 2.75588C12 3.02503 11.7816 3.24347 11.5124 3.24347L9.39793 3.24337C9.39465 3.24344 9.39136 3.24347 9.38806 3.24347L9.3722 3.24282L2.62756 3.24339C2.62231 3.24345 2.61706 3.24347 2.61181 3.24347L2.6018 3.24282L0.487593 3.24347C0.218442 3.24347 0 3.02503 0 2.75588C0 2.48673 0.218442 2.26828 0.487593 2.26828L2.62065 2.26763L2.68633 2.26348C2.93096 2.23174 3.13427 2.04594 3.18392 1.79889L3.3419 1.00834C3.50248 0.402427 4.02713 0 4.62395 0H7.37592ZM7.37592 0.975187H4.62395C4.46792 0.975187 4.33074 1.07986 4.29108 1.23004L4.1396 1.99068C4.12035 2.08703 4.09232 2.17988 4.05644 2.26846H7.94362C7.9077 2.17988 7.8796 2.08703 7.86027 1.99068L7.70229 1.20013C7.66913 1.07986 7.53195 0.975187 7.37592 0.975187Z" fill="#F50C0C"/>
</svg>
