<svg width="23" height="20" viewBox="0 0 23 20" fill="none" xmlns="http://www.w3.org/2000/svg">
<path d="M16.1392 0C17.8214 0.0189453 19.4224 0.73104 20.5695 1.97049C21.7166 3.20995 22.3096 4.86856 22.2118 6.50997L22.2103 13.4399C22.3096 15.1314 21.7166 16.7901 20.5695 18.0295C19.4224 19.269 17.8214 19.9811 16.1298 20H6.06243C2.54072 20 0 17.1539 0 13.49V6.50997C0 2.84612 2.54072 0 6.06243 0H16.1392ZM16.1204 1.6982H6.06243C3.51421 1.6982 1.68604 3.74617 1.68604 6.50997V13.49C1.68604 16.2538 3.51421 18.3018 6.06243 18.3018H16.1204C17.3414 18.2881 18.5036 17.7712 19.3362 16.8715C20.1688 15.9719 20.5993 14.7679 20.5257 13.49L20.5272 6.45988C20.5993 5.23208 20.1688 4.02815 19.3362 3.12847C18.5036 2.2288 17.3414 1.71191 16.1204 1.6982ZM17.8045 6.26485C18.069 6.59769 18.0444 7.06957 17.7647 7.37279L17.6731 7.45839L13.1098 11.1374C12.0015 12.0075 10.4701 12.051 9.31449 11.2639L9.13526 11.1328L4.5414 7.46059C4.17671 7.16907 4.11569 6.63496 4.40512 6.26762C4.66824 5.93368 5.1304 5.85253 5.48626 6.05956L5.58952 6.13035L10.1776 9.79791C10.692 10.2018 11.3972 10.2328 11.9342 9.89646L12.0648 9.80472L16.6195 6.13255C16.983 5.8395 17.5135 5.89873 17.8045 6.26485Z" fill="#1D2029"/>
</svg>