<svg width="76" height="76" viewBox="0 0 76 76" fill="none" xmlns="http://www.w3.org/2000/svg">
<rect width="76" height="76" rx="4" fill="#FECACA" fill-opacity="0.5"/>
<path d="M39.2082 28.7434L51.0745 16.8745C51.0745 16.8745 51.0745 16.8745 51.0746 16.8744C53.5739 14.3752 57.6261 14.3752 60.1255 16.8745C62.3884 19.1374 62.6029 22.675 60.7671 25.1782L60.0997 25.9513L48.2529 37.7877L47.5451 38.4948L48.2526 39.2022L60.1235 51.0725C62.6229 53.5719 62.6229 57.6241 60.1235 60.1235C57.8606 62.3864 54.323 62.6009 51.8199 60.7652L51.0466 60.0976L39.2082 48.2566L38.501 47.5493L37.7939 48.2565L25.9275 60.1235C23.4281 62.6229 19.3759 62.6229 16.8765 60.1235C14.6136 57.8606 14.3991 54.323 16.2348 51.8199L16.9025 51.0465L28.7397 39.202L29.4465 38.4948L28.7394 37.7879L16.8745 25.9255C16.8745 25.9255 16.8745 25.9255 16.8744 25.9255C14.3752 23.4261 14.3752 19.3739 16.8745 16.8745C19.1374 14.6116 22.675 14.3971 25.1782 16.2329L25.9514 16.9004L37.7939 28.7435L38.501 29.4507L39.2082 28.7434Z" stroke="#DC2626" stroke-width="2"/>
</svg>
