<svg width="12" height="12" viewBox="0 0 12 12" fill="none" xmlns="http://www.w3.org/2000/svg">
<path d="M6 0C9.31373 0 12 2.68647 12 6C12 9.31353 9.31373 12 6 12C2.68667 12 0 9.31333 0 6C0 2.68667 2.68667 0 6 0ZM6 0.9C3.18373 0.9 0.9 3.18373 0.9 6C0.9 8.81627 3.18373 11.1 6 11.1C8.81666 11.1 11.1 8.81649 11.1 6C11.1 3.18351 8.81666 0.9 6 0.9ZM6.00306 7.82754C6.25159 7.82754 6.45306 8.02901 6.45306 8.27754C6.45306 8.50536 6.28377 8.69363 6.06412 8.72343L5.99706 8.72754C5.74853 8.72754 5.54706 8.52607 5.54706 8.27754C5.54706 8.04972 5.71635 7.86144 5.936 7.83165L6.00306 7.82754ZM5.99706 3.27246C6.22488 3.27246 6.41316 3.44175 6.44295 3.6614L6.44706 3.72246V6.37386C6.44706 6.62239 6.24559 6.82386 5.99706 6.82386C5.76924 6.82386 5.58097 6.65457 5.55117 6.43492L5.54706 6.37386V3.72246C5.54706 3.47393 5.74853 3.27246 5.99706 3.27246Z" fill="#DC2626"/>
</svg>
