<svg width="17" height="20" viewBox="0 0 17 20" fill="none" xmlns="http://www.w3.org/2000/svg">
<path d="M8.37222 5.09923e-05C11.2263 5.09923e-05 13.5542 2.25673 13.6688 5.08268L13.6732 5.30116L13.6739 6.87726C15.4501 7.49411 16.725 9.18239 16.725 11.169V15.458C16.725 17.9669 14.6916 20 12.183 20H4.54201C2.03348 20 0 17.9669 0 15.458V11.169C0 9.18201 1.27541 7.49347 3.05213 6.87691L3.05221 5.27788C3.06503 2.34988 5.44807 -0.0126526 8.37222 5.09923e-05ZM12.183 8.12697H4.54201C2.86185 8.12697 1.5 9.48856 1.5 11.169V15.458C1.5 17.1384 2.86185 18.5 4.54201 18.5H12.183C13.8632 18.5 15.225 17.1384 15.225 15.458V11.169C15.225 9.48856 13.8632 8.12697 12.183 8.12697ZM8.36272 11.4531C8.74242 11.4531 9.05621 11.7352 9.10588 12.1013L9.11272 12.2031V14.4241C9.11272 14.8383 8.77694 15.1741 8.36272 15.1741C7.98302 15.1741 7.66923 14.8919 7.61957 14.5259L7.61272 14.4241V12.2031C7.61272 11.7889 7.94851 11.4531 8.36272 11.4531ZM8.36895 1.5001C6.33557 1.49123 4.66856 3.08062 4.55801 5.08585L4.55221 5.28116L4.55201 6.62602H12.173L12.1732 5.30116C12.1732 3.20236 10.471 1.50011 8.36895 1.5001Z" fill="#D97706"/>
</svg>
