<svg width="161" height="38" viewBox="0 0 161 38" fill="none" xmlns="http://www.w3.org/2000/svg">
<path d="M28.0544 12.1837L23.9392 26.2848C23.3742 28.2208 20.6379 28.2394 20.0468 26.3111L18.342 20.7503C18.1404 20.0927 17.6256 19.5779 16.9679 19.3763L11.4066 17.6717C9.47828 17.0806 9.49679 14.3445 11.433 13.7796L25.5352 9.66475C27.075 9.21544 28.5037 10.6441 28.0544 12.1837Z" fill="url(#paint0_linear)" stroke="#F2F2F2" stroke-width="0.5"/>
<path d="M25.5953 14.644L21.4801 28.7451C20.938 30.6029 18.3122 30.6207 17.745 28.7704L16.0402 23.2096C15.8306 22.5258 15.2954 21.9907 14.6117 21.7812L9.05043 20.0765C7.19998 19.5093 7.21775 16.8838 9.07567 16.3417L23.1779 12.2268C24.6555 11.7956 26.0265 13.1665 25.5953 14.644Z" fill="url(#paint1_linear)" stroke="#F2F2F2" stroke-width="0.5"/>
<path d="M23.1329 17.2495L19.0177 31.3506C18.4756 33.2083 15.8498 33.2261 15.2826 31.3758L13.5778 25.815C13.3682 25.1313 12.833 24.5962 12.1493 24.3866L6.58803 22.682C4.73758 22.1148 4.75535 19.4892 6.61327 18.9471L20.7155 14.8323C22.1931 14.4011 23.5641 15.772 23.1329 17.2495Z" fill="url(#paint2_linear)" stroke="#F2F2F2" stroke-width="0.5"/>
<path d="M39.5947 16.5441V19.9617H43.115V20.7504H39.5947V24.9502H38.7675V15.7555H43.9424V16.5441H39.5947ZM58.2551 24.9502V15.7555H59.0821V24.1616H62.6029V24.9502H58.2551ZM78.7365 20.5516V24.9502H77.9096V20.5644L75.5305 15.7555H76.4215L78.3134 19.577L80.205 15.7555H81.0963L78.7365 20.5516ZM100.584 22.8215C100.584 23.1335 100.524 23.4263 100.404 23.6999C100.289 23.9735 100.129 24.2129 99.9235 24.418C99.7183 24.6232 99.479 24.7857 99.2052 24.9053C98.9315 25.0208 98.6389 25.0785 98.327 25.0785H97.6728C97.3605 25.0785 97.0658 25.0208 96.788 24.9053C96.5143 24.7857 96.275 24.6232 96.0698 24.418C95.8646 24.2129 95.7021 23.9735 95.5822 23.6999C95.4669 23.4263 95.409 23.1335 95.409 22.8215V17.8842C95.409 17.5722 95.4669 17.2794 95.5822 17.0058C95.7021 16.7322 95.8646 16.4928 96.0698 16.2876C96.275 16.0825 96.5143 15.9222 96.788 15.8068C97.0658 15.6871 97.3605 15.6272 97.6728 15.6272H98.327C98.6389 15.6272 98.9315 15.6871 99.2052 15.8068C99.479 15.9222 99.7183 16.0825 99.9235 16.2876C100.129 16.4928 100.289 16.7322 100.404 17.0058C100.524 17.2794 100.584 17.5722 100.584 17.8842V18.2561L99.7568 18.3844V17.8842C99.7568 17.679 99.7182 17.4888 99.6415 17.3136C99.5643 17.134 99.4597 16.978 99.3271 16.8455C99.1946 16.713 99.0386 16.6083 98.8589 16.5313C98.6836 16.4544 98.4936 16.4159 98.2884 16.4159H97.7114C97.5062 16.4159 97.3137 16.4544 97.134 16.5313C96.9587 16.6083 96.8028 16.713 96.6661 16.8455C96.5335 16.978 96.4285 17.134 96.3517 17.3136C96.275 17.4888 96.2364 17.679 96.2364 17.8842V22.8215C96.2364 23.0266 96.275 23.219 96.3517 23.3986C96.4285 23.5738 96.5335 23.7298 96.6661 23.8666C96.8028 23.9991 96.9587 24.1039 97.134 24.1808C97.3137 24.2577 97.5062 24.2962 97.7114 24.2962H98.2884C98.4936 24.2962 98.6836 24.2577 98.8589 24.1808C99.0386 24.1039 99.1946 23.9991 99.3271 23.8666C99.4597 23.7298 99.5643 23.5738 99.6415 23.3986C99.7182 23.219 99.7568 23.0266 99.7568 22.8215V22.3213L100.584 22.456V22.8215ZM119.014 22.8086H116.102L115.499 24.9502H114.64L117.333 15.7555H117.769L120.475 24.9502H119.623L119.014 22.8086ZM116.327 22.02H118.795L117.583 17.7816L117.558 17.4418L117.532 17.7816L116.327 22.02ZM139.828 22.8215C139.828 23.1335 139.764 23.4263 139.636 23.6999C139.512 23.9735 139.343 24.2129 139.129 24.418C138.92 24.6232 138.674 24.7857 138.392 24.9053C138.114 25.0208 137.819 25.0785 137.507 25.0785H136.847C136.534 25.0785 136.237 25.0208 135.955 24.9053C135.678 24.7857 135.432 24.6232 135.218 24.418C135.009 24.2129 134.839 23.9735 134.711 23.6999C134.587 23.4263 134.526 23.1335 134.526 22.8215V22.456L135.352 22.3213V22.8215C135.352 23.0266 135.393 23.219 135.474 23.3986C135.56 23.5738 135.673 23.7298 135.814 23.8666C135.955 23.9991 136.118 24.1039 136.302 24.1808C136.49 24.2577 136.686 24.2962 136.891 24.2962H137.469C137.674 24.2962 137.868 24.2577 138.052 24.1808C138.236 24.1039 138.398 23.9991 138.54 23.8666C138.681 23.7298 138.792 23.5738 138.873 23.3986C138.959 23.219 139.001 23.0266 139.001 22.8215V22.5457C139.001 22.2294 138.939 21.9665 138.815 21.7571C138.691 21.5476 138.527 21.3702 138.322 21.2249C138.117 21.0753 137.883 20.9492 137.623 20.8466C137.366 20.744 137.101 20.6414 136.827 20.5388C136.554 20.4362 136.287 20.3229 136.026 20.199C135.769 20.075 135.538 19.9211 135.333 19.7373C135.128 19.5492 134.963 19.3205 134.839 19.0512C134.716 18.7819 134.654 18.4506 134.654 18.0573V17.8842C134.654 17.5722 134.711 17.2794 134.827 17.0058C134.947 16.7322 135.109 16.4928 135.314 16.2876C135.519 16.0825 135.759 15.9222 136.032 15.8068C136.31 15.6871 136.605 15.6272 136.917 15.6272H137.507C137.819 15.6272 138.112 15.6871 138.386 15.8068C138.659 15.9222 138.899 16.0825 139.104 16.2876C139.309 16.4928 139.47 16.7322 139.585 17.0058C139.704 17.2794 139.764 17.5722 139.764 17.8842V18.1215L138.937 18.2561V17.8842C138.937 17.679 138.899 17.4888 138.822 17.3136C138.745 17.134 138.64 16.978 138.508 16.8455C138.375 16.713 138.219 16.6083 138.039 16.5313C137.864 16.4544 137.674 16.4159 137.469 16.4159H136.956C136.75 16.4159 136.558 16.4544 136.378 16.5313C136.203 16.6083 136.047 16.713 135.911 16.8455C135.778 16.978 135.673 17.134 135.596 17.3136C135.519 17.4888 135.481 17.679 135.481 17.8842V18.0573C135.481 18.3523 135.543 18.6002 135.667 18.8011C135.791 19.0021 135.955 19.1752 136.161 19.3205C136.366 19.4616 136.597 19.5856 136.853 19.6924C137.114 19.795 137.381 19.9019 137.655 20.013C137.928 20.1199 138.193 20.2396 138.45 20.3721C138.711 20.5003 138.943 20.6606 139.149 20.853C139.354 21.0411 139.518 21.2719 139.642 21.5455C139.766 21.8191 139.828 22.1525 139.828 22.5457V22.8215ZM159.092 24.9502V20.7504H155.571V24.9502H154.744V15.7555H155.571V19.9617H159.092V15.7555H159.919V24.9502H159.092Z" fill="black"/>
<defs>
<linearGradient id="paint0_linear" x1="31.1289" y1="6.15541" x2="4.04462" y2="32.8725" gradientUnits="userSpaceOnUse">
<stop stop-color="#F50C0C"/>
<stop offset="1" stop-color="white"/>
</linearGradient>
<linearGradient id="paint1_linear" x1="28.7486" y1="8.6387" x2="1.66431" y2="35.3558" gradientUnits="userSpaceOnUse">
<stop stop-color="#F50C0C"/>
<stop offset="1" stop-color="white"/>
</linearGradient>
<linearGradient id="paint2_linear" x1="26.2862" y1="11.2441" x2="-0.798096" y2="37.9612" gradientUnits="userSpaceOnUse">
<stop stop-color="#F50C0C"/>
<stop offset="1" stop-color="white"/>
</linearGradient>
</defs>
</svg>
