<svg width="16" height="16" viewBox="0 0 16 16" fill="none" xmlns="http://www.w3.org/2000/svg">
<path d="M7.25229 0C9.10587 0 10.6187 1.45991 10.7037 3.2925L10.7074 3.45514V4.18201C10.7074 4.50471 10.4458 4.7663 10.1231 4.7663C9.82733 4.7663 9.58287 4.54649 9.54418 4.26129L9.53884 4.18201V3.45514C9.53884 2.23754 8.58681 1.24203 7.38663 1.17248L7.25229 1.16859H3.45436C2.23742 1.16859 1.24202 2.12071 1.17248 3.32081L1.16859 3.45514V12.1261C1.16859 13.3436 2.12053 14.3392 3.3201 14.4088L3.45436 14.4127H7.26008C8.47337 14.4127 9.46564 13.4641 9.53497 12.2685L9.53884 12.1347V11.4C9.53884 11.0773 9.80044 10.8157 10.1231 10.8157C10.4189 10.8157 10.6634 11.0355 10.7021 11.3207L10.7074 11.4V12.1347C10.7074 13.982 9.25308 15.4902 7.42708 15.5773L7.26008 15.5813H3.45436C1.60141 15.5813 0.088689 14.1212 0.00376067 12.2887L0 12.1261V3.45514C0 1.60171 1.45978 0.0887057 3.29178 0.00376138L3.45436 0H7.25229ZM13.481 5.049L13.5466 5.10542L15.8277 7.37639C15.8482 7.39677 15.8663 7.41751 15.8828 7.43946L15.8277 7.37639C15.8515 7.40009 15.8728 7.42532 15.8917 7.45177C15.905 7.47027 15.9173 7.48983 15.9284 7.51012C15.9304 7.51406 15.9325 7.51793 15.9345 7.52182C15.9444 7.5405 15.9531 7.55988 15.9608 7.57978C15.964 7.58849 15.9671 7.59731 15.9701 7.60618C15.9758 7.62256 15.9805 7.63942 15.9846 7.65657C15.9864 7.66574 15.9883 7.67484 15.99 7.68396C15.9932 7.69989 15.9956 7.71632 15.9972 7.73295C15.9981 7.74452 15.9989 7.75598 15.9993 7.76745C15.9999 7.77514 16 7.78283 16 7.79055L15.9993 7.81261C15.9989 7.8246 15.9981 7.83658 15.9969 7.84853L16 7.79055C16 7.82704 15.9967 7.86276 15.9903 7.8974C15.9884 7.90605 15.9865 7.91518 15.9843 7.92427C15.9804 7.94233 15.9754 7.95983 15.9696 7.97697C15.9667 7.98494 15.9638 7.993 15.9607 8.00101C15.9535 8.0204 15.945 8.03916 15.9357 8.05737C15.9333 8.06148 15.9309 8.0661 15.9284 8.07068C15.9015 8.12001 15.868 8.16461 15.8289 8.20371L15.8278 8.20448L13.5467 10.4762C13.318 10.7039 12.9481 10.7032 12.7204 10.4745C12.5134 10.2667 12.4952 9.94202 12.6654 9.71363L12.7221 9.64821L13.999 8.37414L6.03501 8.37485C5.71231 8.37485 5.45071 8.11325 5.45071 7.79055C5.45071 7.49474 5.67053 7.25028 5.95572 7.21159L6.03501 7.20625L14.0005 7.20555L12.7221 5.93358C12.5142 5.72661 12.4947 5.40204 12.6639 5.17292L12.7203 5.10726C12.9273 4.89936 13.2518 4.87978 13.481 5.049Z" fill="#520404"/>
</svg>
