<svg width="16" height="13" viewBox="0 0 16 13" fill="none" xmlns="http://www.w3.org/2000/svg">
<path d="M7.99656 7.64897L8.21817 7.65C11.2153 7.67815 12.9185 8.28952 12.9185 9.98072C12.9185 11.6321 11.2904 12.2644 8.43416 12.3209L7.99656 12.3251C4.86153 12.3251 3.07464 11.7259 3.07464 9.99338C3.07464 8.25893 4.86871 7.64897 7.99656 7.64897ZM7.99656 8.7394C5.46191 8.7394 4.16506 9.1803 4.16506 9.99338C4.16506 10.8008 5.45902 11.2347 7.99656 11.2347C10.5304 11.2347 11.8281 10.7934 11.8281 9.98072C11.8281 9.17341 10.5337 8.7394 7.99656 8.7394ZM13.1164 7.19607C13.4957 7.22223 13.8688 7.27609 14.2178 7.35487C14.9949 7.50701 15.579 7.79837 15.8502 8.36681C16.0499 8.78675 16.0499 9.27504 15.8502 9.69608C15.5808 10.2624 15.0067 10.5498 14.2229 10.7109C13.928 10.7716 13.6397 10.5817 13.5791 10.2867C13.5184 9.99177 13.7083 9.70351 14.0033 9.64286C14.4775 9.54535 14.7885 9.38968 14.8653 9.22823C14.9244 9.10364 14.9244 8.95888 14.8658 8.83576C14.788 8.67267 14.4744 8.51621 13.9934 8.42183C13.6841 8.35222 13.366 8.30629 13.0414 8.28391C12.741 8.26319 12.5142 8.00288 12.535 7.70248C12.5557 7.40208 12.816 7.17535 13.1164 7.19607ZM3.46495 7.70248C3.48567 8.00288 3.25894 8.26319 2.95855 8.28391C2.7151 8.3007 2.4753 8.33073 2.23382 8.37539L1.99158 8.42497C1.5257 8.51618 1.21241 8.67254 1.13464 8.83604C1.07572 8.95932 1.07572 9.1032 1.13537 9.22832C1.21193 9.38982 1.52261 9.54538 1.99665 9.64286C2.29159 9.70351 2.48152 9.99177 2.42087 10.2867C2.36022 10.5817 2.07195 10.7716 1.77701 10.7109C0.992897 10.5497 0.418773 10.2622 0.150583 9.69652C-0.0501592 9.27548 -0.0501593 8.78631 0.150372 8.36674C0.402632 7.83641 0.92818 7.54716 1.61705 7.38976L1.76713 7.35801C2.13116 7.27609 2.50421 7.22223 2.88352 7.19607C3.18392 7.17535 3.44424 7.40208 3.46495 7.70248ZM7.99656 0C9.85431 0 11.3465 1.49221 11.3465 3.34995C11.3465 5.20825 9.85443 6.70058 7.99656 6.70058C6.13869 6.70058 4.64661 5.20825 4.64661 3.34995C4.64661 1.49221 6.13881 0 7.99656 0ZM12.109 0.684693C13.575 0.684693 14.7639 1.87311 14.7639 3.33896C14.7639 4.80481 13.575 5.99323 12.109 5.99323C11.8079 5.99323 11.5638 5.74913 11.5638 5.44802C11.5638 5.1469 11.8079 4.9028 12.109 4.9028C12.9729 4.9028 13.6735 4.20248 13.6735 3.33896C13.6735 2.47544 12.9729 1.77511 12.109 1.77511C11.8079 1.77511 11.5638 1.53102 11.5638 1.2299C11.5638 0.928792 11.8079 0.684693 12.109 0.684693ZM3.89093 0.684693C4.19204 0.684693 4.43614 0.928792 4.43614 1.2299C4.43614 1.53102 4.19204 1.77511 3.89093 1.77511C3.02705 1.77511 2.32642 2.47544 2.32642 3.33896C2.32642 4.20248 3.02705 4.9028 3.89093 4.9028C4.19204 4.9028 4.43614 5.1469 4.43614 5.44802C4.43614 5.74913 4.19204 5.99323 3.89093 5.99323C2.42494 5.99323 1.236 4.80481 1.236 3.33896C1.236 1.87311 2.42494 0.684693 3.89093 0.684693ZM7.99656 1.09042C6.74104 1.09042 5.73703 2.09443 5.73703 3.34995C5.73703 4.60606 6.74095 5.61015 7.99656 5.61015C9.25217 5.61015 10.2561 4.60606 10.2561 3.34995C10.2561 2.09443 9.25209 1.09042 7.99656 1.09042Z" fill="#520404"/>
</svg>
