<svg width="16" height="17" viewBox="0 0 16 17" fill="none" xmlns="http://www.w3.org/2000/svg">
<path d="M7.99032 3.58072e-05C10.1311 3.58072e-05 11.8925 1.61625 12.1095 3.68926L12.1698 3.69007C13.6376 3.69007 14.8655 4.79525 15.2896 6.72144L15.9511 11.8301C16.3291 15.0487 14.4878 16.8421 11.4072 16.8421H4.58842C1.25714 16.8421 -0.445011 15.251 0.100398 11.6315L0.741142 6.68831C1.09522 4.78579 2.35557 3.69007 3.8557 3.69007C3.95556 2.75244 4.37555 1.87215 5.05299 1.20093C5.83349 0.4276 6.89143 -0.0045294 7.99032 3.58072e-05ZM12.1698 4.90922H3.8557C2.95909 4.90922 2.19464 5.57381 1.95113 6.87716L1.31386 11.7997C0.88773 14.6283 1.95179 15.623 4.58842 15.623H11.4072C13.8421 15.623 15.0825 14.3712 14.7099 11.7872L14.0837 6.93047C13.7868 5.58987 13.0306 4.90922 12.1698 4.90922ZM10.4128 7.17174C10.7511 7.17174 11.0254 7.44465 11.0254 7.78131C11.0254 8.08991 10.7949 8.34495 10.4959 8.38532L10.4128 8.39088H10.3754C10.0371 8.39088 9.76277 8.11797 9.76277 7.78131C9.76277 7.47271 9.99325 7.21767 10.2923 7.17731L10.3754 7.17174H10.4128ZM5.65011 7.17174C5.98845 7.17174 6.26274 7.44465 6.26274 7.78131C6.26274 8.08991 6.03226 8.34495 5.73324 8.38532L5.65011 8.39088H5.61273C5.27439 8.39088 5.00011 8.11797 5.00011 7.78131C5.00011 7.47271 5.23058 7.21767 5.5296 7.17731L5.61273 7.17174H5.65011ZM7.98775 1.21921C7.21212 1.21596 6.46714 1.52026 5.91754 2.06481C5.47149 2.50677 5.18394 3.07744 5.09143 3.68936L10.8747 3.68962C10.6652 2.29159 9.4534 1.21921 7.98775 1.21921Z" fill="#520404"/>
</svg>
