<svg width="18" height="18" viewBox="0 0 18 18" fill="none" xmlns="http://www.w3.org/2000/svg">
<path d="M5.41213 9.85037C6.89267 9.85037 8.0903 11.0587 8.0903 12.5472V15.304C8.0903 16.7918 6.8925 18 5.41213 18H2.67817C1.1978 18 0 16.7918 0 15.304V12.5472C0 11.0587 1.19763 9.85037 2.67817 9.85037H5.41213ZM15.3227 9.85037C16.8025 9.85037 18 11.0589 18 12.5472V15.304C18 16.7916 16.8024 18 15.3227 18H12.5879C11.1075 18 9.9097 16.7918 9.9097 15.304V12.5472C9.9097 11.0587 11.1073 9.85037 12.5879 9.85037H15.3227ZM5.41213 11.1062H2.67817C1.89372 11.1062 1.25581 11.7498 1.25581 12.5472V15.304C1.25581 16.1007 1.89381 16.7442 2.67817 16.7442H5.41213C6.19649 16.7442 6.83448 16.1007 6.83448 15.304V12.5472C6.83448 11.7498 6.19658 11.1062 5.41213 11.1062ZM15.3227 11.1062H12.5879C11.8034 11.1062 11.1655 11.7498 11.1655 12.5472V15.304C11.1655 16.1007 11.8035 16.7442 12.5879 16.7442H15.3227C16.1063 16.7442 16.7442 16.1006 16.7442 15.304V12.5472C16.7442 11.7499 16.1064 11.1062 15.3227 11.1062ZM15.3227 0C16.8024 0 18 1.20837 18 2.69597V5.45367C18 6.94065 16.8021 8.14963 15.3227 8.14963H12.5879C11.1078 8.14963 9.9097 6.94083 9.9097 5.45367V2.69597C9.9097 1.2082 11.1075 0 12.5879 0H15.3227ZM5.41213 0C6.8925 0 8.0903 1.2082 8.0903 2.69597V5.45367C8.0903 6.94083 6.89224 8.14963 5.41213 8.14963H2.67817C1.19806 8.14963 0 6.94083 0 5.45367V2.69597C0 1.2082 1.1978 0 2.67817 0H5.41213ZM15.3227 1.25581H12.5879C11.8035 1.25581 11.1655 1.89935 11.1655 2.69597V5.45367C11.1655 6.24976 11.8038 6.89382 12.5879 6.89382H15.3227C16.1059 6.89382 16.7442 6.24966 16.7442 5.45367V2.69597C16.7442 1.89944 16.1063 1.25581 15.3227 1.25581ZM5.41213 1.25581H2.67817C1.89381 1.25581 1.25581 1.89935 1.25581 2.69597V5.45367C1.25581 6.24976 1.89415 6.89382 2.67817 6.89382H5.41213C6.19615 6.89382 6.83448 6.24976 6.83448 5.45367V2.69597C6.83448 1.89935 6.19649 1.25581 5.41213 1.25581Z" fill="#520404"/>
</svg>
