<svg width="21" height="20" viewBox="0 0 21 20" fill="none" xmlns="http://www.w3.org/2000/svg">
<path fill-rule="evenodd" clip-rule="evenodd" d="M4.54346 0.000526956C5.63319 0.0151607 6.40975 0.831725 7.39216 1.86487C7.63509 2.1195 7.89752 2.39754 8.19117 2.69021C9.61455 4.11457 9.20968 5.27649 8.88286 6.20914C8.52775 7.22668 8.22044 8.1047 10.0604 9.94466C11.9003 11.7846 12.7774 11.4773 13.7939 11.1193C14.7276 10.7934 15.8866 10.3856 17.3129 11.81C17.6026 12.0997 17.8758 12.3592 18.1294 12.6002C19.1665 13.5875 19.986 14.367 19.9998 15.4596C20.0104 16.3903 19.4445 17.3406 18.0475 18.7376L17.429 18.3181L17.9529 18.8283C17.6436 19.1454 16.8212 19.9902 15.2105 20H15.1812C12.7501 20 9.5804 18.0644 5.76001 14.245C1.92402 10.41 -0.0144702 7.23058 8.13173e-05 4.79455C0.00894381 3.18483 0.852824 2.36047 1.16989 2.0512L1.19695 2.02165L1.26257 1.9556C2.66253 0.555634 3.62446 -0.0199603 4.54346 0.000526956ZM4.52492 1.4639H4.51712C4.07902 1.4639 3.4137 1.90292 2.48578 2.80425L2.29945 2.98724L2.30157 2.98679C2.30274 2.98679 2.28565 3.00505 2.25851 3.03273L2.19328 3.09801C1.95719 3.32727 1.46842 3.80433 1.46349 4.80235C1.45574 6.19841 2.37376 8.79054 6.79413 13.2099C11.193 17.6079 13.7813 18.5366 15.1812 18.5366H15.2017C16.1997 18.5308 16.6758 18.042 16.9051 17.8069C16.9744 17.7357 17.0309 17.682 17.0709 17.6498C18.0436 16.6713 18.5411 15.9445 18.5363 15.4772C18.5304 15.0011 17.9382 14.4392 17.1197 13.6597C16.8592 13.4129 16.5763 13.1426 16.2778 12.8441C15.5032 12.0724 15.1217 12.2041 14.2778 12.5007C13.112 12.9095 11.515 13.4694 9.02627 10.9788C6.53658 8.49006 7.09461 6.89303 7.50143 5.72623C7.79606 4.88333 7.93069 4.49992 7.15705 3.72531C6.85462 3.42288 6.58243 3.13605 6.3317 2.87265C5.55709 2.05901 4.99808 1.47073 4.52492 1.4639ZM12.9228 3.47117C14.953 3.8653 16.5208 5.43209 16.9159 7.46326C16.993 7.8613 16.7345 8.2447 16.3384 8.32177C16.2906 8.33055 16.2437 8.33543 16.1969 8.33543C15.8535 8.33543 15.5481 8.09348 15.4799 7.74423C15.1989 6.30036 14.0857 5.18722 12.6438 4.90723C12.2468 4.83016 11.9882 4.44675 12.0653 4.04969C12.1424 3.65263 12.5326 3.39312 12.9228 3.47117ZM12.8644 0.00608779C16.8428 0.448027 19.9325 3.5338 20.3784 7.51126C20.4232 7.9132 20.1345 8.27514 19.7335 8.32002C19.7062 8.32294 19.6779 8.32489 19.6506 8.32489C19.2828 8.32489 18.9667 8.0488 18.9247 7.67515C18.555 4.38158 15.997 1.82555 12.7025 1.45971C12.3015 1.41483 12.0118 1.05387 12.0566 0.651924C12.1005 0.250959 12.4586 -0.0446426 12.8644 0.00608779Z" fill="#1D2029"/>
</svg>