<svg width="14" height="14" viewBox="0 0 14 14" fill="none" xmlns="http://www.w3.org/2000/svg">
<path d="M5.51401 8.71958L5.74092 8.72056C9.11233 8.74976 11.028 9.44153 11.028 11.2956C11.028 13.1061 9.20378 13.7965 5.96447 13.8531L5.51401 13.857C2.00178 13.857 0 13.1762 0 11.2809C0 9.38772 1.99293 8.71958 5.51401 8.71958ZM5.51401 9.76961L5.2783 9.77072C2.4874 9.79748 1.05002 10.3057 1.05002 11.2809C1.05002 12.2891 2.57293 12.807 5.51401 12.807C8.45883 12.807 9.978 12.2975 9.978 11.2956C9.978 10.2875 8.4551 9.76961 5.51401 9.76961ZM12.0428 4.14352C12.3086 4.14352 12.5283 4.34103 12.563 4.59729L12.5678 4.66853L12.5674 5.54691L13.475 5.54698C13.7649 5.54698 14 5.78204 14 6.07199C14 6.33778 13.8025 6.55745 13.5462 6.59221L13.475 6.597L12.5674 6.59693L12.5678 7.47559C12.5678 7.76554 12.3328 8.0006 12.0428 8.0006C11.777 8.0006 11.5574 7.80309 11.5226 7.54683L11.5178 7.47559L11.5173 6.59693L10.6119 6.597C10.322 6.597 10.0869 6.36195 10.0869 6.07199C10.0869 5.8062 10.2844 5.58654 10.5407 5.55177L10.6119 5.54698L11.5173 5.54691L11.5178 4.66853C11.5178 4.37858 11.7529 4.14352 12.0428 4.14352ZM5.51401 0C7.5792 0 9.23668 1.65748 9.23668 3.72267C9.23668 5.78739 7.57898 7.44535 5.51401 7.44535C3.44952 7.44535 1.79134 5.78717 1.79134 3.72267C1.79134 1.65771 3.4493 0 5.51401 0ZM5.51401 1.05002C4.02917 1.05002 2.84136 2.23765 2.84136 3.72267C2.84136 5.20725 4.02943 6.39533 5.51401 6.39533C6.99903 6.39533 8.18666 5.20751 8.18666 3.72267C8.18666 2.23739 6.99929 1.05002 5.51401 1.05002Z" fill="#171717"/>
</svg>
