<svg width="18" height="14" viewBox="0 0 18 14" fill="none" xmlns="http://www.w3.org/2000/svg">
<path d="M0.684631 6.66649C0.684631 6.29283 0.971089 5.98403 1.34275 5.93516L1.44607 5.92843L14.8314 5.92881L9.99553 1.26099C9.69753 0.973382 9.69649 0.506068 9.99321 0.217217C10.263 -0.0453749 10.6859 -0.0700788 10.9845 0.143685L11.07 0.214969L17.2123 6.14308L17.2274 6.15863C17.243 6.17456 17.2579 6.19118 17.2719 6.20841L17.2123 6.14308C17.2419 6.17164 17.2686 6.20197 17.2923 6.23373C17.3067 6.25367 17.3206 6.27438 17.3334 6.29578C17.3625 6.34338 17.3849 6.3932 17.4015 6.44443C17.4071 6.46248 17.4123 6.48093 17.4168 6.49964C17.4204 6.51392 17.4234 6.52844 17.4259 6.54302C17.4284 6.55882 17.4307 6.57463 17.4323 6.59058C17.4342 6.6066 17.4354 6.62297 17.436 6.63935C17.4361 6.64844 17.4363 6.65744 17.4363 6.66649L17.4361 6.69099C17.4355 6.70917 17.4341 6.72733 17.4321 6.74543L17.4363 6.66649C17.4363 6.70863 17.4327 6.74995 17.4257 6.79017C17.4225 6.80849 17.4186 6.82689 17.4139 6.84515C17.4101 6.85967 17.406 6.87392 17.4014 6.88798C17.396 6.90469 17.3899 6.92153 17.3831 6.93818C17.376 6.95536 17.3684 6.97216 17.3602 6.98862C17.3539 7.00121 17.3469 7.0142 17.3395 7.02702C17.3255 7.05106 17.3107 7.07363 17.2947 7.09531C17.2922 7.09871 17.2893 7.10245 17.2865 7.10618C17.2611 7.13912 17.2348 7.16818 17.2063 7.19509L11.0701 13.1182C10.7721 13.4058 10.29 13.4048 9.99326 13.116C9.72349 12.8534 9.69979 12.4433 9.92158 12.1549L9.99549 12.0722L14.8305 7.40525L1.44607 7.40455C1.02554 7.40455 0.684631 7.07411 0.684631 6.66649Z" fill="#520404"/>
</svg>
