<svg width="14" height="15" viewBox="0 0 14 15" fill="none" xmlns="http://www.w3.org/2000/svg">
<path d="M7.45397 1.60625e-07C7.9764 -0.000210485 8.47668 0.206768 8.84083 0.573787C9.20498 0.940805 9.402 1.43661 9.38615 1.89933L9.3924 2.00815C9.40512 2.11532 9.44073 2.21875 9.49848 2.31409C9.61099 2.50207 9.79521 2.63849 10.0105 2.69326C10.2258 2.74803 10.4545 2.71665 10.6711 2.5925L10.7918 2.53142C11.6981 2.11398 12.785 2.44571 13.2877 3.30052L13.7395 4.06865C13.7514 4.0889 13.7619 4.10982 13.771 4.13128L13.8129 4.21357C14.217 5.05856 13.9295 6.06367 13.1618 6.57431L12.9722 6.69103C12.8731 6.75873 12.7905 6.84716 12.7283 6.95342C12.6161 7.14214 12.5853 7.36691 12.6427 7.57796C12.7002 7.789 12.8411 7.9689 13.0549 8.09L13.1779 8.16723C13.5495 8.4219 13.818 8.79725 13.9351 9.22747C14.0672 9.71285 13.9963 10.2298 13.7347 10.6698L13.2486 11.4631L13.1754 11.575C12.6043 12.3795 11.4955 12.6253 10.6494 12.1468L10.5491 12.0962C10.4445 12.0504 10.3316 12.0252 10.2288 12.0223C10.0053 12.0213 9.7906 12.1078 9.63253 12.2627C9.47447 12.4176 9.38615 12.6279 9.38672 12.8725L9.38074 12.9989C9.29892 13.9781 8.46225 14.7368 7.45419 14.7368H6.54394C5.47635 14.7368 4.6109 13.8889 4.61198 12.8766L4.60573 12.7677C4.59301 12.6606 4.5574 12.5571 4.49673 12.4569C4.38668 12.2684 4.20436 12.1308 3.99028 12.0747C3.7762 12.0186 3.54811 12.0485 3.32732 12.1736L3.19614 12.2378C2.78128 12.4206 2.31334 12.4543 1.87486 12.3323C1.38015 12.1945 0.961869 11.8693 0.717776 11.4376L0.248161 10.6431L0.185659 10.5254C-0.241999 9.64095 0.0932207 8.57775 0.944005 8.09602L1.0216 8.04841C1.24888 7.89429 1.38517 7.64018 1.38517 7.36842C1.38517 7.07292 1.22426 6.79986 0.942777 6.64006L0.828569 6.56827C0.00737386 6.00877 -0.243532 4.92246 0.265185 4.05776L0.743605 3.28754C1.27568 2.38277 2.45483 2.07065 3.36173 2.58021L3.45991 2.63148C3.55999 2.67649 3.6687 2.70038 3.77338 2.70147C4.23494 2.70152 4.61098 2.33838 4.61797 1.87291L4.62424 1.72996C4.66203 1.28738 4.85805 0.871464 5.1785 0.556002C5.54003 0.20009 6.03142 1.60625e-07 6.54394 1.60625e-07H7.45397ZM7.45419 1.06676H6.54394C6.32109 1.06676 6.10744 1.15375 5.95025 1.3085C5.81092 1.44566 5.72569 1.62651 5.71073 1.7954L5.70084 2.02005C5.6246 2.99959 4.78925 3.76833 3.76767 3.7682C3.50433 3.76552 3.24472 3.70847 2.97999 3.58861L2.83824 3.51537C2.43438 3.28864 1.9194 3.42495 1.68042 3.83102L1.202 4.60125C0.982777 4.97401 1.09242 5.4487 1.43186 5.6805L1.62396 5.79969C2.15303 6.15017 2.47398 6.73691 2.47398 7.36842C2.47398 7.99072 2.16199 8.57245 1.62267 8.93762L1.50786 9.00834C1.12998 9.22252 0.984144 9.68505 1.15978 10.0493L1.20125 10.1278L1.66491 10.9115C1.77379 11.1039 1.95647 11.246 2.17252 11.3061C2.36402 11.3595 2.5684 11.3447 2.72785 11.275L2.80796 11.2366C3.25018 10.9838 3.77715 10.9145 4.27175 11.0442C4.76634 11.1739 5.18758 11.4917 5.43743 11.9198C5.57184 12.1417 5.65689 12.3886 5.68982 12.6726L5.70467 12.9331C5.7505 13.3475 6.10877 13.6701 6.54394 13.6701H7.45419C7.89432 13.6701 8.25991 13.3386 8.29425 12.9324L8.29842 12.852C8.29594 12.3483 8.49908 11.8646 8.86263 11.5084C9.22617 11.1522 9.71995 10.9532 10.246 10.9558C10.5041 10.9626 10.7582 11.0192 11.0178 11.1337L11.2507 11.2502C11.6161 11.4074 12.0495 11.2927 12.2692 10.9839L12.3226 10.9021L12.7974 10.1269C12.9097 9.93814 12.9405 9.71337 12.883 9.50233C12.8321 9.31528 12.7154 9.15207 12.5739 9.05443L12.3732 8.93017C11.9896 8.67614 11.7108 8.29408 11.5907 7.85282C11.4586 7.36743 11.5294 6.85047 11.7855 6.41982C11.9257 6.18001 12.1184 5.97382 12.3696 5.80287L12.488 5.72978C12.8653 5.51357 13.011 5.05108 12.8367 4.68546L12.7846 4.58706L12.7752 4.5664L12.3443 3.83311C12.1405 3.48655 11.7164 3.33681 11.3566 3.45513L11.2748 3.48722L11.1988 3.52516C10.758 3.77956 10.232 3.85174 9.73686 3.72578C9.2417 3.59981 8.81802 3.28606 8.5607 2.85612C8.42629 2.63424 8.34124 2.38725 8.30831 2.10335L8.29864 1.91762C8.30519 1.69417 8.21915 1.47764 8.06011 1.31735C7.90107 1.15706 7.68258 1.06676 7.45419 1.06676ZM7.00239 4.96029C8.35986 4.96029 9.46031 6.03845 9.46031 7.36842C9.46031 8.6984 8.35986 9.77655 7.00239 9.77655C5.64491 9.77655 4.54446 8.6984 4.54446 7.36842C4.54446 6.03845 5.64491 4.96029 7.00239 4.96029ZM7.00239 6.02704C6.24625 6.02704 5.63327 6.6276 5.63327 7.36842C5.63327 8.10924 6.24625 8.7098 7.00239 8.7098C7.75853 8.7098 8.3715 8.10924 8.3715 7.36842C8.3715 6.6276 7.75853 6.02704 7.00239 6.02704Z" fill="#520404"/>
</svg>
