<svg width="18" height="18" viewBox="0 0 18 18" fill="none" xmlns="http://www.w3.org/2000/svg">
<path d="M11.2471 0.732136C11.6084 0.732136 11.9012 1.02407 11.9012 1.38419C11.9012 1.71431 11.6551 1.98712 11.3359 2.0303L11.2471 2.03625H4.90886C2.7681 2.03625 1.39093 3.4495 1.31177 5.65402L1.30817 5.85659V12.8835C1.30817 15.1461 2.60192 16.608 4.71456 16.6921L4.90886 16.6959H12.4126C14.5552 16.6959 15.9306 15.2881 16.0097 13.0859L16.0133 12.8835V6.7638C16.0133 6.40368 16.3061 6.11174 16.6674 6.11174C16.9985 6.11174 17.2722 6.35705 17.3155 6.67532L17.3215 6.7638V12.8835C17.3215 15.8311 15.4549 17.9019 12.617 17.9966L12.4126 18H4.90886C2.00421 18 0.0905641 16.009 0.00312834 13.0933L0 12.8835V5.85659C0 2.90756 1.86769 0.830547 4.70459 0.735537L4.90886 0.732136H11.2471ZM13.0926 6.67013C13.3522 6.87065 13.4189 7.22737 13.2626 7.50445L13.209 7.58495L10.6546 10.8716C10.4525 11.1316 10.0925 11.1973 9.81426 11.0392L9.73349 10.985L7.27512 9.06011L5.06804 11.9203C4.86778 12.1798 4.51018 12.2475 4.23171 12.0926L4.15078 12.0395C3.89051 11.8398 3.82262 11.4833 3.97793 11.2057L4.03125 11.1251L6.64159 7.74291C6.84327 7.4816 7.20417 7.41508 7.48306 7.57347L7.56403 7.62776L10.0231 9.55393L12.175 6.7862C12.3962 6.50153 12.8071 6.44957 13.0926 6.67013ZM15.6695 0C16.9566 0 18 1.04015 18 2.32324C18 3.60633 16.9566 4.64648 15.6695 4.64648C14.3825 4.64648 13.3391 3.60633 13.3391 2.32324C13.3391 1.04015 14.3825 0 15.6695 0ZM15.6695 1.30412C15.105 1.30412 14.6473 1.76039 14.6473 2.32324C14.6473 2.88608 15.105 3.34236 15.6695 3.34236C16.2341 3.34236 16.6918 2.88608 16.6918 2.32324C16.6918 1.76039 16.2341 1.30412 15.6695 1.30412Z" fill="#520404"/>
</svg>
