<svg width="16" height="16" viewBox="0 0 16 16" fill="none" xmlns="http://www.w3.org/2000/svg">
<path d="M6.07301 9.56553L6.32885 9.56663C10.0445 9.59897 12.1468 10.3494 12.1468 12.3992C12.1468 14.4056 10.132 15.1796 6.57874 15.2444L6.07301 15.2489C2.19741 15.2489 0 14.5122 0 12.4152C0 10.3155 2.20615 9.56553 6.07301 9.56553ZM6.07301 10.7656C2.85902 10.7656 1.20004 11.3295 1.20004 12.4152C1.20004 13.494 2.85504 14.0489 6.07301 14.0489C9.28723 14.0489 10.9468 13.4848 10.9468 12.3992C10.9468 11.321 9.29027 10.7656 6.07301 10.7656ZM12.4698 8.99898C12.9343 9.03057 13.396 9.09715 13.8398 9.19553C14.7903 9.3846 15.4969 9.73754 15.8207 10.4169C16.0598 10.9199 16.0598 11.5051 15.8207 12.008C15.4988 12.6856 14.7995 13.036 13.8436 13.2326C13.519 13.2994 13.2018 13.0904 13.135 12.7658C13.0682 12.4412 13.2772 12.124 13.6018 12.0572C14.2169 11.9307 14.6263 11.7256 14.7368 11.4929C14.821 11.3159 14.821 11.1091 14.7371 10.9326C14.6258 10.6991 14.2143 10.4936 13.593 10.3699C13.1951 10.2818 12.7928 10.2238 12.3884 10.1963C12.0577 10.1738 11.8079 9.88752 11.8304 9.5569C11.8529 9.22628 12.1392 8.97649 12.4698 8.99898ZM6.07301 0C8.35152 0 10.1812 1.82935 10.1812 4.10734C10.1812 6.38599 8.35166 8.21549 6.07301 8.21549C3.79447 8.21549 1.96567 6.3861 1.96567 4.10734C1.96567 1.82924 3.79462 0 6.07301 0ZM11.2161 0.85571C13.0041 0.85571 14.4539 2.30574 14.4539 4.09342C14.4539 5.88165 13.0044 7.33113 11.2161 7.33113C10.8848 7.33113 10.6161 7.0625 10.6161 6.73111C10.6161 6.39973 10.8848 6.13109 11.2161 6.13109C12.3416 6.13109 13.2538 5.21889 13.2538 4.09342C13.2538 2.96845 12.3413 2.05575 11.2161 2.05575C10.8848 2.05575 10.6161 1.78711 10.6161 1.45573C10.6161 1.12435 10.8848 0.85571 11.2161 0.85571ZM6.07301 1.20004C4.45742 1.20004 3.16571 2.49196 3.16571 4.10734C3.16571 5.72342 4.45732 7.01544 6.07301 7.01544C7.6889 7.01544 8.98111 5.72323 8.98111 4.10734C8.98111 2.49216 7.68879 1.20004 6.07301 1.20004Z" fill="#520404"/>
</svg>
